<svg width="111" height="110" viewBox="0 0 111 110" fill="none" xmlns="http://www.w3.org/2000/svg">
<path fill-rule="evenodd" clip-rule="evenodd" d="M55.5 110C85.8757 110 110.5 85.3757 110.5 55C110.5 24.6243 85.8757 0 55.5 0C25.1243 0 0.5 24.6243 0.5 55C0.5 85.3757 25.1243 110 55.5 110ZM83.7074 29.0316C84.8294 27.8125 84.7507 25.9146 83.5316 24.7926C82.3125 23.6706 80.4146 23.7493 79.2926 24.9684L60.0708 45.8537L46.9283 27.7383L46.0299 26.5H44.5H29.5H23.5704L27.083 31.2772L47.6913 59.3044L27.2926 81.4684C26.1706 82.6875 26.2493 84.5854 27.4684 85.7074C28.6875 86.8294 30.5854 86.7507 31.7074 85.5316L51.3128 64.2296L64.583 82.2772L65.4822 83.5H67H81.5H87.3828L83.9283 78.7383L63.6652 50.8082L83.7074 29.0316ZM42.9701 32.5L55.9256 50.3576L51.8312 54.8062L35.4296 32.5H42.9701ZM68.5178 77.5L55.4527 59.7314L59.5201 55.3121L75.6172 77.5H68.5178Z" fill="#FF2525"/>
</svg>
